{"title":"Hoovey.LIMITED.2015.1080p.BluRay.x264-AN0NYM0US[rarbg]","uid":11991663,"size":7031474723,"categoryP":"video","categoryS":"hd___movies","magnet":"?xt=urn:btih:c07c74137d8e7f64e950ff639e787c1c84ef076d&amp;dn=Hoovey.LIMITED.2015.1080p.BluRay.x264-AN0NYM0US%5Brarbg%5D&amp;tr=udp%3A%2F%2Ftracker.openbittorrent.com%3A80&amp;tr=udp%3A%2F%2Fopen.demonii.com%3A1337&amp;tr=udp%3A%2F%2Ftracker.coppersurfer.tk%3A6969&amp;tr=udp%3A%2F%2Fexodus.desync.com%3A6969","seeders":0,"leechers":0,"uploader":"vickey1992","files":3,"time":1433529593,"description":"AN0NYM0US PRESENTS:\n\nHoovey.LIMITED.2015.1080p.BluRay.x264-AN0NYM0US\n\nRELEASE DATE: 2015/06/05\nSTORE DATE..: 2015/06/02\nSOURCE......: BD REGION 2\nRUNTIME.....: 1h 32mn\nViDEO.......: x264 2pass 9 663 Kbps\nRESOLUTiON..: 1920 x 800\nAUDiO.......: EN AC-3 5.1 @ 448 Kbps\nSUBTITLES...: -\nGENRE.......: Drama\nRATING......: 7,6/10 from 39 users\n &lt;a href=&quot;\nhttp://www.imdb.com/title/tt2828884/&quot; rel=&quot;nofollow&quot; target=&quot;_NEW&quot;&gt;\nhttp://www.imdb.com/title/tt2828884/&lt;/a&gt;\n\nWe are Legion!\nWe do not Forgive!\nWe do not Forget\n\nAN0NYM0US!\n\npH7&amp;0ND/SiLK                                                  2012\n\n\nVideo\nID                                       : 1\nFormat                                   : AVC\nFormat/Info                              : Advanced Video Codec\nFormat profile                           : &lt;a class=&quot;__cf_email__&quot; href=&quot;/cdn-cgi/l/email-protection&quot; data-cfemail=&quot;246c4d434c6468100a15&quot;&gt;[email&amp;#160;protected]&lt;/a&gt;&lt;script data-cfhash='f9e31' type=&quot;text/javascript&quot;&gt;\n/* &lt;![CDATA[ */!function(){try{var t=&quot;currentScript&quot;in document?document.currentScript:function(){for(var t=document.getElementsByTagName(&quot;script&quot;),e=t.length;e--;)if(t[e].getAttribute(&quot;data-cfhash&quot;))return t[e]}();if(t&amp;&amp;t.previousSibling){var e,r,n,i,c=t.previousSibling,a=c.getAttribute(&quot;data-cfemail&quot;);if(a){for(e=&quot;&quot;,r=parseInt(a.substr(0,2),16),n=2;a.length-n;n+=2)i=parseInt(a.substr(n,2),16)^r,e+=String.fromCharCode(i);e=document.createTextNode(e),c.parentNode.replaceChild(e,c)}t.parentNode.removeChild(t);}}catch(u){}}()/* ]]&gt; */&lt;/script&gt;\nFormat settings, CABAC                   : Yes\nFormat settings, ReFrames                : 5 frames\nCodec ID                                 : V_MPEG4/ISO/AVC\nDuration                                 : 1h 32mn\nBit rate                                 : 9 663 Kbps\nWidth                                    : 1 920 pixels\nHeight                                   : 800 pixels\nDisplay aspect ratio                     : 2.40:1\nFrame rate mode                          : Constant\nFrame rate                               : 23.976 fps\nColor space                              : YUV\nChroma subsampling                       : 4:2:0\nBit depth                                : 8 bits\nScan type                                : Progressive\nBits/(Pixel*Frame)                       : 0.262\nStream size                              : 6.13 GiB (94%)\nWriting library                          : x264 core 142 r2491 24e4fed\nEncoding settings                        : cabac=1 / ref=5 / deblock=1:0:0 / analyse=0x3:0x113 / me=umh / subme=8 / psy=1 / psy_rd=1.00:0.00 / mixed_ref=1 / me_range=16 / chroma_me=1 / trellis=1 / 8x8dct=1 / cqm=0 / deadzone=21,11 / fast_pskip=0 / chroma_qp_offset=-2 / threads=12 / lookahead_threads=2 / sliced_threads=0 / nr=0 / decimate=1 / interlaced=0 / bluray_compat=0 / constrained_intra=0 / bframes=3 / b_pyramid=2 / b_adapt=2 / b_bias=0 / direct=3 / weightb=1 / open_gop=0 / weightp=2 / keyint=250 / keyint_min=23 / scenecut=40 / intra_refresh=0 / rc_lookahead=50 / rc=2pass / mbtree=1 / bitrate=9663 / ratetol=1.0 / qcomp=0.60 / qpmin=0 / qpmax=69 / qpstep=4 / cplxblur=20.0 / qblur=0.5 / ip_ratio=1.40 / aq=1:1.00\nLanguage                                 : English\nDefault                                  : Yes\nForced                                   : No\nDURATION                                 : 01:32:44.976000000\nNUMBER_OF_FRAMES                         : 133426\nNUMBER_OF_BYTES                          : 6718491276\n_STATISTICS_WRITING_APP                  : mkvmerge v7.8.0 ('River Man') 64bit built on Mar 27 2015 16:31:37\n_STATISTICS_WRITING_DATE_UTC             : 2015-06-05 13:49:17\n_STATISTICS_TAGS                         : BPS DURATION NUMBER_OF_FRAMES NUMBER_OF_BYTES\n\nAudio\nID                                       : 2\nFormat                                   : AC-3\nFormat/Info                              : Audio Coding 3\nMode extension                           : CM (complete main)\nFormat settings, Endianness              : Big\nCodec ID                                 : A_AC3\nDuration                                 : 1h 32mn\nBit rate mode                            : Constant\nBit rate                                 : 448 Kbps\nChannel(s)                               : 6 channels\nChannel positions                        : Front: L C R, Side: L R, LFE\nSampling rate                            : 48.0 KHz\nBit depth                                : 16 bits\nCompression mode                         : Lossy\nStream size                              : 297 MiB (4%)\nLanguage                                 : English\nDefault                                  : Yes\nForced                                   : No\n\nMenu\n00:00:00.000                             : en:00:00:00.000\n00:00:02.002                             : en:00:00:02.002\n00:05:28.912                             : en:00:05:28.912\n00:10:14.072                             : en:00:10:14.072\n00:14:39.962                             : en:00:14:39.962\n00:19:32.922                             : en:00:19:32.922\n00:24:55.577                             : en:00:24:55.577\n00:26:33.050                             : en:00:26:33.050\n00:29:13.001                             : en:00:29:13.001\n00:33:22.417                             : en:00:33:22.417\n00:37:44.596                             : en:00:37:44.596\n00:44:46.934                             : en:00:44:46.934\n00:49:21.917                             : en:00:49:21.917\n00:55:01.924                             : en:00:55:01.924\n00:59:35.530                             : en:00:59:35.530\n01:04:58.061                             : en:01:04:58.061\n01:08:32.066                             : en:01:08:32.066\n01:13:01.294                             : en:01:13:01.294\n01:25:09.438                             : en:01:25:09.438","torrent":{"xt":"urn:btih:c07c74137d8e7f64e950ff639e787c1c84ef076d","amp;dn":"Hoovey.LIMITED.2015.1080p.BluRay.x264-AN0NYM0US%5Brarbg%5D","amp;tr":["udp%3A%2F%2Ftracker.openbittorrent.com%3A80","udp%3A%2F%2Fopen.demonii.com%3A1337","udp%3A%2F%2Ftracker.coppersurfer.tk%3A6969","udp%3A%2F%2Fexodus.desync.com%3A6969"],"infoHash":"c07c74137d8e7f64e950ff639e787c1c84ef076d","infoHashBuffer":{"type":"Buffer","data":[192,124,116,19,125,142,127,100,233,80,255,99,158,120,124,28,132,239,7,109]},"announce":[],"urlList":[]}}